Tiên Nguyễn
<svg xmlns="http://www.w3.org/2000/svg" width="904" height="153" viewBox="0 0 904 153" fill="none">
<g clip-path="url(#clip0_2663_17955)">
<path d="M54.0911 74.4326C53.165 74.5992 52.6748 74.7655 52.1303 74.7655C42.9795 74.7655 33.7744 74.8765 24.6236 74.6545C18.2508 74.4879 12.9673 71.8792 8.17407 67.2168C2.12805 61.3889 -0.105156 54.4507 0.0037819 46.3468C0.058251 39.6862 0.0037819 33.0256 0.0037819 26.365C0.11272 12.0448 11.6056 0.111194 25.604 0.055707C45.3216 -0.0553285 64.9849 0.055707 84.7025 0.000189223C98.0474 -0.0552981 110.303 12.1003 110.139 26.1431C110.085 31.6936 110.03 37.2442 110.194 42.7947C110.248 45.1815 109.431 45.792 107.198 45.7363C103.113 45.57 99.0278 45.6254 94.9426 45.7363C93.1996 45.792 92.5459 45.1258 92.5459 43.3496C92.6548 38.1876 92.6005 32.9703 92.5459 27.8083C92.4916 21.7026 88.842 17.9838 82.8506 17.9838C64.3312 17.9838 45.8118 17.9838 27.2925 17.9838C21.301 17.9838 17.5427 21.7026 17.4882 27.7527C17.4337 34.136 17.4337 40.519 17.4882 46.902C17.5427 52.7302 21.4099 56.6155 27.1292 56.6708C32.8483 56.7265 38.5676 56.7265 44.2866 56.6708C45.9753 56.6708 46.9012 57.0594 47.2282 59.0022C48.2629 64.5528 50.3872 69.6591 54.0911 74.4326Z" fill="#150A84"/>
<path d="M115.91 4.9516C126.476 4.9516 136.608 4.56826 146.793 5.06112C159.593 5.66353 170.16 17.2731 170.215 30.1427C170.269 37.6451 169.997 45.1478 170.269 52.5955C170.651 65.4099 159.975 77.8411 146.466 78.4984C138.514 78.8818 130.507 78.8818 122.555 78.9364C111.116 78.9913 99.6781 79.0459 88.2395 78.9364C80.0148 78.8818 72.6617 76.4721 67.0513 70.1195C62.9118 65.4648 60.4608 60.0979 60.4062 53.8002C60.3516 47.8859 60.4062 41.9167 60.3516 36.0021C60.3516 34.0856 61.0599 33.4283 62.9118 33.4832C67.1059 33.5927 71.2454 33.5927 75.4395 33.4832C77.2371 33.4283 77.7816 34.0307 77.7273 35.8926C77.6184 40.7117 77.6181 45.5857 77.6727 50.4048C77.7273 57.1957 80.6686 60.4813 87.368 61.029C90.146 61.248 92.9784 61.1931 95.8107 61.1931C110.681 61.1931 125.605 61.1931 140.475 61.1931C141.564 61.1931 142.654 61.1931 143.743 61.0836C149.408 60.5362 152.731 57.1957 152.894 51.5C153.057 45.3118 153.057 39.069 152.894 32.8809C152.731 26.4188 148.972 22.8044 142.545 22.7495C137.098 22.6949 131.651 22.6949 126.204 22.7495C124.189 22.8044 123.317 22.0926 123.045 20.0113C122.282 14.9185 119.777 9.88029 115.91 4.9516Z" fill="#150A84"/>
<path d="M262.483 2.78076V33.6485C258.746 26.723 252.354 22.3699 244.191 22.3699C230.424 22.3699 220 33.7475 220 48.7856C220 63.8237 230.424 75.2014 244.191 75.2014C252.354 75.2014 258.746 70.8482 262.483 63.9227V74.014H273.694V2.78076H262.483ZM247.044 60.7567C238.193 60.7567 231.703 55.612 231.703 48.7856C231.703 41.9591 238.193 36.8145 247.044 36.8145C255.894 36.8145 262.483 41.9591 262.483 48.7856C262.483 55.612 255.894 60.7567 247.044 60.7567Z" fill="#150A84"/>
<path d="M291.686 16.9286C296.898 16.9286 300.832 13.4658 300.832 8.9148C300.832 4.46274 296.898 1 291.686 1C286.572 1 282.639 4.46274 282.639 8.9148C282.639 13.4658 286.572 16.9286 291.686 16.9286ZM286.081 74.0141H297.291V23.5572H286.081V74.0141Z" fill="#150A84"/>
<path d="M349.385 23.5573V33.253C345.648 26.5254 339.255 22.3701 331.193 22.3701C317.325 22.3701 307 33.3518 307 47.8952C307 62.4389 317.325 73.5195 331.193 73.5195C339.255 73.5195 345.648 69.2654 349.385 62.6368V68.4739C349.385 75.6962 343.683 80.346 334.83 80.346C328.733 80.346 323.523 78.2685 321.26 75.0035H309.558C312.508 86.678 321.85 93.9991 334.83 93.9991C350.368 93.9991 360.695 83.9079 360.695 68.5729V23.5573H349.385ZM334.045 59.8666C325.193 59.8666 318.605 54.722 318.605 47.8952C318.605 41.0688 325.193 35.9241 334.045 35.9241C342.895 35.9241 349.385 41.0688 349.385 47.8952C349.385 54.722 342.895 59.8666 334.045 59.8666Z" fill="#150A84"/>
<path d="M378.048 16.9286C383.258 16.9286 387.192 13.4658 387.192 8.9148C387.192 4.46274 383.258 1 378.048 1C372.933 1 369 4.46274 369 8.9148C369 13.4658 372.933 16.9286 378.048 16.9286ZM372.442 74.0141H383.652V23.5572H372.442V74.0141Z" fill="#150A84"/>
<path d="M425.6 22.3701C417.437 22.3701 411.045 26.4263 407.21 34.1433V23.5573H396V74.0142H407.21V46.6093C407.21 40.6732 412.718 36.8147 420.78 36.8147C428.55 36.8147 433.565 40.5741 433.565 46.4113V74.0142H444.775V41.5635C444.775 29.9882 437.105 22.3701 425.6 22.3701Z" fill="#150A84"/>
<path d="M508.087 49.0826C508.087 33.6487 496.482 22.3701 481.045 22.3701C465.605 22.3701 454 33.7477 454 48.7858C454 63.8239 465.605 75.2015 481.142 75.2015C493.435 75.2015 503.465 68.2761 507.202 58.0858H494.812C492.55 60.2622 487.337 61.9443 481.438 61.9443C473.473 61.9443 467.67 58.4814 465.605 53.0399H507.792C507.99 51.8528 508.087 50.3688 508.087 49.0826ZM481.045 35.6275C488.517 35.6275 494.615 38.9911 496.582 44.4326H465.702C467.767 39.0902 473.667 35.6275 481.045 35.6275Z" fill="#150A84"/>
<path d="M561.908 23.5571H547.648L536.142 39.6837H534.47L522.867 23.5571H509.69L526.603 48.39L509 74.014H523.162L534.865 57.7887H536.635L548.532 74.014H561.613L544.502 48.9834L561.908 23.5571Z" fill="#150A84"/>
</g>
<path d="M620.733 59.6606V74.7778H575V5.70371H587.418V59.6606H620.733Z" fill="url(#paint0_radial_2663_17955)"/>
<path d="M625.177 47.9496V5.70371H637.596V47.7793C637.596 55.0824 644.669 60.5923 654.258 60.5923C663.847 60.5923 670.809 55.0824 670.809 47.7793V5.70371H683.338V47.9496C683.338 63.9784 670.708 76 654.258 76C637.808 76 625.177 63.9684 625.177 47.9496Z" fill="url(#paint1_radial_2663_17955)"/>
<path d="M695.834 4H713.81L731.381 37.8308H733.604L751.267 4H769.849V73.1242H757.43V27.0414H755.208L738.949 59.5498H726.652L710.485 27.0214H708.262V73.1041H695.834V4Z" fill="url(#paint2_radial_2663_17955)"/>
<path d="M833.471 59.6606V74.7778H782.686V5.70371H832.966V20.8209H795.105V32.7323H829.632V47.3485H795.105V59.6606H833.471Z" fill="url(#paint3_radial_2663_17955)"/>
<path d="M843.565 5.70371H857.6L889.712 49.4523H891.43V5.70371H904V74.8279H889.854L857.803 31.0292H855.984V74.7778H843.565V5.70371Z" fill="url(#paint4_radial_2663_17955)"/>
<path d="M768 100.906V152.094H774.71V136.082H789.387C794.081 136.082 798.015 134.379 801.221 131.01C804.394 127.641 805.981 123.475 805.981 118.476C805.981 113.476 804.394 109.31 801.221 105.941C798.015 102.572 794.081 100.906 789.387 100.906H768ZM774.71 124.707V112.245H789.189C795.436 112.245 798.94 114.527 798.94 118.476C798.94 122.352 795.403 124.707 789.189 124.707H774.71Z" fill="url(#paint5_radial_2663_17955)"/>
<path d="M850.177 152.094L839.401 134.814C842.475 133.474 844.921 131.373 846.772 128.474C848.623 125.576 849.549 122.243 849.549 118.476C849.549 113.476 847.962 109.31 844.789 105.941C841.582 102.572 837.649 100.906 832.955 100.906H811.568V152.094H818.278V136.082H831.599L841.615 152.094H850.177ZM832.756 112.245C839.004 112.245 842.508 114.527 842.508 118.476C842.508 122.352 838.971 124.707 832.756 124.707H818.278V112.245H832.756Z" fill="url(#paint6_radial_2663_17955)"/>
<path d="M895.926 145.392C900.653 140.321 903 134.017 903 126.482C903 118.983 900.653 112.679 895.926 107.608C891.199 102.536 885.348 100 878.307 100C871.266 100 865.382 102.536 860.655 107.608C855.929 112.679 853.582 118.983 853.582 126.482C853.582 134.017 855.929 140.321 860.655 145.392C865.382 150.464 871.266 153 878.307 153C885.348 153 891.199 150.464 895.926 145.392ZM865.68 137.133C862.308 134.307 860.622 130.757 860.622 126.482C860.622 122.243 862.308 118.693 865.68 115.831C869.019 113.005 873.217 111.593 878.274 111.593C883.332 111.593 887.53 113.005 890.935 115.831C894.339 118.693 896.025 122.243 896.025 126.482C896.025 130.757 894.339 134.307 890.935 137.133C887.53 139.995 883.332 141.407 878.274 141.407C873.217 141.407 869.019 139.995 865.68 137.133Z" fill="url(#paint7_radial_2663_17955)"/>
<defs>
<radialGradient id="paint0_radial_2663_17955" cx="0" cy="0" r="1" gradientUnits="userSpaceOnUse" gradientTransform="translate(575.145 74.7697) rotate(-12.0692) scale(337.425 617.687)">
<stop stop-color="#3220A9"/>
<stop offset="0.223958" stop-color="#5E41E2"/>
<stop offset="1" stop-color="#1EC2F7"/>
</radialGradient>
<radialGradient id="paint1_radial_2663_17955" cx="0" cy="0" r="1" gradientUnits="userSpaceOnUse" gradientTransform="translate(575.145 74.7697) rotate(-12.0692) scale(337.425 617.687)">
<stop stop-color="#3220A9"/>
<stop offset="0.223958" stop-color="#5E41E2"/>
<stop offset="1" stop-color="#1EC2F7"/>
</radialGradient>
<radialGradient id="paint2_radial_2663_17955" cx="0" cy="0" r="1" gradientUnits="userSpaceOnUse" gradientTransform="translate(575.145 74.7697) rotate(-12.0692) scale(337.425 617.687)">
<stop stop-color="#3220A9"/>
<stop offset="0.223958" stop-color="#5E41E2"/>
<stop offset="1" stop-color="#1EC2F7"/>
</radialGradient>
<radialGradient id="paint3_radial_2663_17955" cx="0" cy="0" r="1" gradientUnits="userSpaceOnUse" gradientTransform="translate(575.145 74.7697) rotate(-12.0692) scale(337.425 617.687)">
<stop stop-color="#3220A9"/>
<stop offset="0.223958" stop-color="#5E41E2"/>
<stop offset="1" stop-color="#1EC2F7"/>
</radialGradient>
<radialGradient id="paint4_radial_2663_17955" cx="0" cy="0" r="1" gradientUnits="userSpaceOnUse" gradientTransform="translate(575.145 74.7697) rotate(-12.0692) scale(337.425 617.687)">
<stop stop-color="#3220A9"/>
<stop offset="0.223958" stop-color="#5E41E2"/>
<stop offset="1" stop-color="#1EC2F7"/>
</radialGradient>
<radialGradient id="paint5_radial_2663_17955" cx="0" cy="0" r="1" gradientUnits="userSpaceOnUse" gradientTransform="translate(768.06 152.094) rotate(-20.9856) scale(145.016 434.123)">
<stop stop-color="#3220A9"/>
<stop offset="0.511704" stop-color="#5E41E2"/>
<stop offset="1" stop-color="#1EC2F7"/>
</radialGradient>
<radialGradient id="paint6_radial_2663_17955" cx="0" cy="0" r="1" gradientUnits="userSpaceOnUse" gradientTransform="translate(768.06 152.094) rotate(-20.9856) scale(145.016 434.123)">
<stop stop-color="#3220A9"/>
<stop offset="0.511704" stop-color="#5E41E2"/>
<stop offset="1" stop-color="#1EC2F7"/>
</radialGradient>
<radialGradient id="paint7_radial_2663_17955" cx="0" cy="0" r="1" gradientUnits="userSpaceOnUse" gradientTransform="translate(768.06 152.094) rotate(-20.9856) scale(145.016 434.123)">
<stop stop-color="#3220A9"/>
<stop offset="0.511704" stop-color="#5E41E2"/>
<stop offset="1" stop-color="#1EC2F7"/>
</radialGradient>
<clipPath id="clip0_2663_17955">
<rect width="562" height="94" fill="white"/>
</clipPath>
</defs>
</svg>